<svg xmlns="http://www.w3.org/2000/svg" viewBox="0 0 900 300" color="#152B24" role="img" aria-labelledby="title description">
  <title id="title">Intention Kernel</title>
  <desc id="description">Monochrome Intention Kernel logo for light backgrounds.</desc>
  <g fill="currentColor">
    <rect x="18" y="112" width="24" height="24"/>
    <rect x="50" y="138" width="24" height="24"/>
    <rect x="18" y="164" width="24" height="24"/>
    <path d="M86 22 192 92v40h-18v-32l-70-46v192l70-46v-32h18v40L86 278V22Z"/>
    <path d="M124 147.75h134v4.5H124z"/>
    <circle cx="258" cy="150" r="17"/>
  </g>
  <g fill="currentColor">
    <defs/>
    <g>
        <g>
            <path fill="currentColor" stroke="none" d="M 352.82813 132 L 337.6875 132 L 337.6875 64.78125 L 352.82813 64.78125 L 352.82813 132 Z M 408.01563 132 L 393.25 132 L 393.25 105.328125 Q 393.25 94.171875 385.28128 94.171875 Q 381.4375 94.171875 378.95313 97.125 Q 376.46878 100.07812 376.46878 104.625 L 376.46878 132 L 361.65625 132 L 361.65625 84 L 376.46878 84 L 376.46878 91.59375 L 376.65625 91.59375 Q 381.9531 82.828125 392.07813 82.828125 Q 408.01563 82.828125 408.01563 102.609375 L 408.01563 132 Z M 443.75 131.4375 Q 440.46878 133.17188 433.85938 133.17188 Q 418.20313 133.17188 418.20313 116.90625 L 418.20313 94.921875 L 410.42188 94.921875 L 410.42188 84 L 418.20313 84 L 418.20313 73.640625 L 432.96875 69.421875 L 432.96875 84 L 443.75 84 L 443.75 94.921875 L 432.96875 94.921875 L 432.96875 114.328125 Q 432.96875 121.828125 438.92188 121.828125 Q 441.26566 121.828125 443.75 120.46875 L 443.75 131.4375 Z M 489.84375 112.21875 L 458.53128 112.21875 Q 459.28125 122.671875 471.70316 122.671875 Q 479.625 122.671875 485.625 118.921875 L 485.625 129.60938 Q 478.96875 133.17188 468.32813 133.17188 Q 456.70313 133.17188 450.28128 126.72656 Q 443.8594 120.28125 443.8594 108.75 Q 443.8594 96.796875 450.79688 89.8125 Q 457.73438 82.828125 467.85938 82.828125 Q 478.35938 82.828125 484.10156 89.0625 Q 489.84375 95.29687 489.84375 105.98438 L 489.84375 112.21875 Z M 476.10938 103.125 Q 476.10938 92.8125 467.76563 92.8125 Q 464.20313 92.8125 461.60153 95.765625 Q 459 98.71875 458.4375 103.125 L 476.10938 103.125 Z M 540.0156 132 L 525.25 132 L 525.25 105.328125 Q 525.25 94.171875 517.28125 94.171875 Q 513.4375 94.171875 510.95316 97.125 Q 508.46875 100.07812 508.46875 104.625 L 508.46875 132 L 493.65628 132 L 493.65628 84 L 508.46875 84 L 508.46875 91.59375 L 508.65622 91.59375 Q 513.9531 82.828125 524.0781 82.828125 Q 540.0156 82.828125 540.0156 102.609375 L 540.0156 132 Z M 575.75 131.4375 Q 572.46875 133.17188 565.8594 133.17188 Q 550.2031 133.17188 550.2031 116.90625 L 550.2031 94.921875 L 542.4219 94.921875 L 542.4219 84 L 550.2031 84 L 550.2031 73.640625 L 564.96875 69.421875 L 564.96875 84 L 575.75 84 L 575.75 94.921875 L 564.96875 94.921875 L 564.96875 114.328125 Q 564.96875 121.828125 570.9219 121.828125 Q 573.2656 121.828125 575.75 120.46875 L 575.75 131.4375 Z M 586.59375 76.40625 Q 582.84375 76.40625 580.4531 74.17969 Q 578.0625 71.953125 578.0625 68.71875 Q 578.0625 65.390625 580.4531 63.28125 Q 582.84375 61.171875 586.59375 61.171875 Q 590.3906 61.171875 592.7578 63.28125 Q 595.125 65.390625 595.125 68.71875 Q 595.125 72.09375 592.7578 74.25 Q 590.3906 76.40625 586.59375 76.40625 Z M 593.90625 132 L 579.09375 132 L 579.09375 84 L 593.90625 84 L 593.90625 132 Z M 624.25 133.17188 Q 612.25 133.17188 605.3828 126.44531 Q 598.5156 119.71875 598.5156 108.18751 Q 598.5156 96.28125 605.6406 89.55469 Q 612.7656 82.828125 624.90625 82.828125 Q 636.8594 82.828125 643.65625 89.55469 Q 650.4531 96.28125 650.4531 107.34375 Q 650.4531 119.29687 643.4453 126.234375 Q 636.4375 133.17188 624.25 133.17188 Z M 624.625 94.171875 Q 619.375 94.171875 616.46875 97.78125 Q 613.5625 101.390625 613.5625 108 Q 613.5625 121.828125 624.71875 121.828125 Q 635.3594 121.828125 635.3594 107.625 Q 635.3594 94.171875 624.625 94.171875 Z M 701.4219 132 L 686.65625 132 L 686.65625 105.328125 Q 686.65625 94.171875 678.6875 94.171875 Q 674.84375 94.171875 672.3594 97.125 Q 669.875 100.07812 669.875 104.625 L 669.875 132 L 655.0625 132 L 655.0625 84 L 669.875 84 L 669.875 91.59375 L 670.0625 91.59375 Q 675.3594 82.828125 685.4844 82.828125 Q 701.4219 82.828125 701.4219 102.609375 L 701.4219 132 Z"/>
        </g>
        <g>
            <path fill="currentColor" stroke="none" d="M 393.56247 232 L 374.43753 232 L 354.84372 202.79688 Q 354.28128 201.95311 353.0625 199.09377 L 352.82813 199.09377 L 352.82813 232 L 337.6875 232 L 337.6875 164.78125 L 352.82813 164.78125 L 352.82813 196.5625 L 353.0625 196.5625 Q 353.625 195.24998 354.9375 192.8125 L 373.5 164.78125 L 391.54688 164.78125 L 368.10938 196.84375 L 393.56247 232 Z M 435.71875 212.21875 L 404.40622 212.21875 Q 405.15625 222.67188 417.5781 222.67188 Q 425.50003 222.67188 431.5 218.92188 L 431.5 229.60938 Q 424.84375 233.17186 414.20313 233.17186 Q 402.57816 233.17186 396.15622 226.72656 Q 389.73434 220.28123 389.73434 208.75 Q 389.73434 196.79686 396.67188 189.81248 Q 403.6094 182.82814 413.73438 182.82814 Q 424.2344 182.82814 429.97656 189.06248 Q 435.71875 195.29688 435.71875 205.98438 L 435.71875 212.21875 Z M 421.98438 203.125 Q 421.98438 192.8125 413.64063 192.8125 Q 410.07813 192.8125 407.47656 195.76561 Q 404.87503 198.71875 404.3125 203.125 L 421.98438 203.125 Z M 470.84375 197.35938 Q 468.17184 195.90625 464.60938 195.90625 Q 459.78125 195.90625 457.06247 199.44531 Q 454.34375 202.98436 454.34375 209.07813 L 454.34375 232 L 439.53122 232 L 439.53122 184 L 454.34375 184 L 454.34375 192.90623 L 454.53125 192.90623 Q 458.04688 183.15625 467.1875 183.15625 Q 469.53125 183.15625 470.84375 183.71875 L 470.84375 197.35938 Z M 519.375 232 L 504.60938 232 L 504.60938 205.32813 Q 504.60938 194.17189 496.64063 194.17189 Q 492.79688 194.17189 490.3125 197.125 Q 487.82813 200.07813 487.82813 204.625 L 487.82813 232 L 473.01563 232 L 473.01563 184 L 487.82813 184 L 487.82813 191.59377 L 488.01563 191.59377 Q 493.3125 182.82814 503.43753 182.82814 Q 519.375 182.82814 519.375 202.60938 L 519.375 232 Z M 569.21875 212.21875 L 537.90625 212.21875 Q 538.65625 222.67188 551.0781 222.67188 Q 559 222.67188 565 218.92188 L 565 229.60938 Q 558.34375 233.17186 547.7031 233.17186 Q 536.0781 233.17186 529.65625 226.72656 Q 523.2344 220.28123 523.2344 208.75 Q 523.2344 196.79686 530.1719 189.81248 Q 537.1094 182.82814 547.2344 182.82814 Q 557.7344 182.82814 563.47656 189.06248 Q 569.21875 195.29688 569.21875 205.98438 L 569.21875 212.21875 Z M 555.4844 203.125 Q 555.4844 192.8125 547.1406 192.8125 Q 543.5781 192.8125 540.97656 195.76561 Q 538.375 198.71875 537.8125 203.125 L 555.4844 203.125 Z M 587.84375 232 L 573.03125 232 L 573.03125 160.9375 L 587.84375 160.9375 L 587.84375 232 Z"/>
        </g>
    </g>
</g>
</svg>
